PathFileType	4	(X / Y / Z)	Demo_152250_11_September_2019	Demo_152250_11_September_2019.trc
DataRate	CameraRate	NumFrames	NumMarkers	Units	OrigDataRate	OrigDataStartFrame	OrigNumFrames
50	50	18	25	m	50	1418	2190
Frame#	Time		SpineBase		SpineMid		Neck		Head		ShoulderLeft		ElbowLeft		WristLeft		HandLeft		ShoulderRight		ElbowRight		WristRight		HandRight		HipLeft		KneeLeft		AnkleLeft		FootLeft		HipRight		KneeRight		AnkleRight		FootRight		SpineShoulder		HandTipLeft		LeftThumb		HandTipRight		ThumbRight		
X1	Y1	Z1	X2	Y2	Z2	X3	Y3	Z3	X4	Y4	Z4	X5	Y5	Z5	X6	Y6	Z6	X7	Y7	Z7	X8	Y8	Z8	X9	Y9	Z9	X10	Y10	Z10	X11	Y11	Z11	X12	Y12	Z12	X13	Y13	Z13	X14	Y14	Z14	X15	Y15	Z15	X16	Y16	Z16	X17	Y17	Z17	X18	Y18	Z18	X19	Y19	Z19	X20	Y20	Z20	X21	Y21	Z21	X22	Y22	Z22	X23	Y23	Z23	X24	Y24	Z24	X25	Y25	Z25	
1369	48.697	-0.099	0.716	1.481	-0.101	1.011	1.453	-0.103	1.291	1.410	-0.077	1.433	1.384	-0.251	1.190	1.401	-0.302	0.956	1.413	-0.327	0.705	1.375	-0.325	0.652	1.380	0.064	1.169	1.418	0.123	0.898	1.428	0.207	0.744	1.445	0.216	0.702	1.442	-0.172	0.719	1.443	-0.179	0.428	1.533	-0.132	0.284	1.590	-0.103	0.278	1.549	-0.022	0.724	1.454	0.064	0.427	1.477	0.070	0.286	1.530	0.074	0.280	1.513	-0.103	1.223	1.423	-0.301	0.567	1.391	-0.271	0.680	1.374	0.210	0.593	1.444	0.217	0.643	1.408
1370	48.714	-0.099	0.716	1.481	-0.101	1.011	1.453	-0.103	1.291	1.410	-0.077	1.433	1.384	-0.251	1.190	1.401	-0.302	0.956	1.413	-0.327	0.705	1.375	-0.325	0.652	1.380	0.064	1.169	1.418	0.123	0.898	1.428	0.207	0.744	1.445	0.216	0.702	1.442	-0.172	0.719	1.443	-0.179	0.428	1.533	-0.132	0.284	1.590	-0.103	0.278	1.549	-0.022	0.724	1.454	0.064	0.427	1.477	0.070	0.286	1.530	0.074	0.280	1.513	-0.103	1.223	1.423	-0.301	0.567	1.391	-0.271	0.680	1.374	0.210	0.593	1.444	0.217	0.643	1.408
1371	48.731	-0.101	0.714	1.481	-0.103	1.010	1.453	-0.105	1.290	1.410	-0.081	1.433	1.384	-0.252	1.190	1.401	-0.303	0.955	1.412	-0.326	0.702	1.375	-0.322	0.648	1.380	0.058	1.165	1.416	0.103	0.898	1.427	0.147	0.676	1.448	0.154	0.619	1.443	-0.174	0.717	1.443	-0.176	0.426	1.534	-0.131	0.285	1.590	-0.103	0.277	1.549	-0.023	0.722	1.453	0.059	0.422	1.479	0.067	0.286	1.532	0.073	0.278	1.513	-0.104	1.222	1.423	-0.295	0.560	1.391	-0.266	0.680	1.374	0.144	0.514	1.461	0.171	0.598	1.410
1372	48.747	-0.101	0.714	1.481	-0.103	1.010	1.453	-0.105	1.290	1.410	-0.081	1.433	1.384	-0.252	1.190	1.401	-0.303	0.955	1.412	-0.326	0.702	1.375	-0.322	0.648	1.380	0.058	1.165	1.416	0.103	0.898	1.427	0.147	0.676	1.448	0.154	0.619	1.443	-0.174	0.717	1.443	-0.176	0.426	1.534	-0.131	0.285	1.590	-0.103	0.277	1.549	-0.023	0.722	1.453	0.059	0.422	1.479	0.067	0.286	1.532	0.073	0.278	1.513	-0.104	1.222	1.423	-0.295	0.560	1.391	-0.266	0.680	1.374	0.144	0.514	1.461	0.171	0.598	1.410
1373	48.764	-0.101	0.714	1.481	-0.103	1.010	1.453	-0.105	1.290	1.410	-0.081	1.433	1.384	-0.252	1.190	1.401	-0.303	0.955	1.412	-0.326	0.702	1.375	-0.322	0.648	1.380	0.058	1.165	1.416	0.103	0.898	1.427	0.147	0.676	1.448	0.154	0.619	1.443	-0.174	0.717	1.443	-0.176	0.426	1.534	-0.131	0.285	1.590	-0.103	0.277	1.549	-0.023	0.722	1.453	0.059	0.422	1.479	0.067	0.286	1.532	0.073	0.278	1.513	-0.104	1.222	1.423	-0.295	0.560	1.391	-0.266	0.680	1.374	0.144	0.514	1.461	0.171	0.598	1.410
1374	48.781	-0.101	0.714	1.481	-0.103	1.010	1.453	-0.105	1.290	1.410	-0.081	1.433	1.384	-0.252	1.190	1.401	-0.303	0.955	1.412	-0.326	0.702	1.375	-0.322	0.648	1.380	0.058	1.165	1.416	0.103	0.898	1.427	0.147	0.676	1.448	0.154	0.619	1.443	-0.174	0.717	1.443	-0.176	0.426	1.534	-0.131	0.285	1.590	-0.103	0.277	1.549	-0.023	0.722	1.453	0.059	0.422	1.479	0.067	0.286	1.532	0.073	0.278	1.513	-0.104	1.222	1.423	-0.295	0.560	1.391	-0.266	0.680	1.374	0.144	0.514	1.461	0.171	0.598	1.410
1375	48.797	-0.102	0.712	1.481	-0.104	1.009	1.453	-0.106	1.290	1.411	-0.083	1.433	1.384	-0.253	1.189	1.401	-0.304	0.954	1.411	-0.326	0.701	1.372	-0.320	0.646	1.378	0.054	1.163	1.415	0.098	0.905	1.421	0.180	0.743	1.419	0.194	0.693	1.417	-0.176	0.716	1.443	-0.173	0.424	1.535	-0.131	0.285	1.590	-0.104	0.277	1.549	-0.024	0.721	1.452	0.057	0.420	1.479	0.065	0.285	1.533	0.072	0.277	1.513	-0.105	1.222	1.423	-0.289	0.558	1.389	-0.263	0.681	1.373	0.179	0.584	1.437	0.167	0.631	1.389
1376	48.814	-0.102	0.712	1.481	-0.104	1.009	1.453	-0.106	1.290	1.411	-0.083	1.433	1.384	-0.253	1.189	1.401	-0.304	0.954	1.411	-0.326	0.701	1.372	-0.320	0.646	1.378	0.054	1.163	1.415	0.098	0.905	1.421	0.180	0.743	1.419	0.194	0.693	1.417	-0.176	0.716	1.443	-0.173	0.424	1.535	-0.131	0.285	1.590	-0.104	0.277	1.549	-0.024	0.721	1.452	0.057	0.420	1.479	0.065	0.285	1.533	0.072	0.277	1.513	-0.105	1.222	1.423	-0.289	0.558	1.389	-0.263	0.681	1.373	0.179	0.584	1.437	0.167	0.631	1.389
1377	48.831	-0.103	0.711	1.480	-0.105	1.008	1.453	-0.106	1.290	1.411	-0.085	1.433	1.384	-0.254	1.189	1.401	-0.305	0.953	1.409	-0.327	0.704	1.368	-0.319	0.646	1.372	0.051	1.161	1.415	0.119	0.924	1.409	0.221	0.779	1.402	0.254	0.715	1.406	-0.177	0.715	1.443	-0.171	0.423	1.536	-0.131	0.285	1.590	-0.104	0.277	1.549	-0.025	0.719	1.452	0.057	0.419	1.479	0.065	0.284	1.533	0.071	0.276	1.513	-0.106	1.222	1.424	-0.298	0.582	1.371	-0.265	0.664	1.371	0.247	0.627	1.426	0.213	0.671	1.362
1378	48.848	-0.103	0.711	1.480	-0.105	1.008	1.453	-0.106	1.290	1.411	-0.085	1.433	1.384	-0.254	1.189	1.401	-0.305	0.953	1.409	-0.327	0.704	1.368	-0.319	0.646	1.372	0.051	1.161	1.415	0.119	0.924	1.409	0.221	0.779	1.402	0.254	0.715	1.406	-0.177	0.715	1.443	-0.171	0.423	1.536	-0.131	0.285	1.590	-0.104	0.277	1.549	-0.025	0.719	1.452	0.057	0.419	1.479	0.065	0.284	1.533	0.071	0.276	1.513	-0.106	1.222	1.424	-0.298	0.582	1.371	-0.265	0.664	1.371	0.247	0.627	1.426	0.213	0.671	1.362
1379	48.864	-0.104	0.710	1.480	-0.105	1.008	1.453	-0.107	1.290	1.411	-0.087	1.433	1.385	-0.255	1.189	1.401	-0.306	0.953	1.408	-0.328	0.708	1.363	-0.322	0.648	1.364	0.049	1.160	1.414	0.161	0.953	1.396	0.287	0.830	1.389	0.294	0.807	1.380	-0.177	0.714	1.443	-0.151	0.378	1.552	-0.106	0.252	1.604	-0.092	0.242	1.568	-0.026	0.718	1.452	0.056	0.418	1.479	0.064	0.284	1.534	0.070	0.276	1.513	-0.107	1.222	1.424	-0.308	0.603	1.355	-0.266	0.659	1.370	0.310	0.710	1.376	0.253	0.770	1.327
1380	48.881	-0.104	0.710	1.480	-0.105	1.008	1.453	-0.107	1.290	1.411	-0.087	1.433	1.385	-0.255	1.189	1.401	-0.306	0.953	1.408	-0.328	0.708	1.363	-0.322	0.648	1.364	0.049	1.160	1.414	0.161	0.953	1.396	0.287	0.830	1.389	0.294	0.807	1.380	-0.177	0.714	1.443	-0.151	0.378	1.552	-0.106	0.252	1.604	-0.092	0.242	1.568	-0.026	0.718	1.452	0.056	0.418	1.479	0.064	0.284	1.534	0.070	0.276	1.513	-0.107	1.222	1.424	-0.308	0.603	1.355	-0.266	0.659	1.370	0.310	0.710	1.376	0.253	0.770	1.327
1381	48.898	-0.104	0.709	1.480	-0.106	1.007	1.453	-0.108	1.290	1.412	-0.088	1.434	1.385	-0.255	1.189	1.401	-0.306	0.952	1.407	-0.330	0.713	1.358	-0.332	0.654	1.347	0.048	1.160	1.413	0.216	0.996	1.385	0.357	0.897	1.368	0.377	0.871	1.353	-0.178	0.714	1.443	-0.140	0.353	1.561	-0.095	0.235	1.611	-0.085	0.224	1.577	-0.026	0.718	1.451	0.056	0.417	1.479	0.064	0.283	1.534	0.069	0.275	1.513	-0.107	1.221	1.424	-0.309	0.603	1.349	-0.278	0.633	1.363	0.430	0.807	1.344	0.360	0.855	1.283
1382	48.914	-0.104	0.709	1.480	-0.106	1.007	1.453	-0.108	1.290	1.412	-0.088	1.434	1.385	-0.255	1.189	1.401	-0.306	0.952	1.407	-0.330	0.713	1.358	-0.332	0.654	1.347	0.048	1.160	1.413	0.216	0.996	1.385	0.357	0.897	1.368	0.377	0.871	1.353	-0.178	0.714	1.443	-0.140	0.353	1.561	-0.095	0.235	1.611	-0.085	0.224	1.577	-0.026	0.718	1.451	0.056	0.417	1.479	0.064	0.283	1.534	0.069	0.275	1.513	-0.107	1.221	1.424	-0.309	0.603	1.349	-0.278	0.633	1.363	0.430	0.807	1.344	0.360	0.855	1.283
1383	48.931	-0.104	0.709	1.480	-0.106	1.007	1.453	-0.109	1.290	1.412	-0.090	1.434	1.385	-0.256	1.189	1.401	-0.307	0.952	1.406	-0.333	0.721	1.353	-0.342	0.662	1.335	0.047	1.160	1.413	0.249	1.048	1.377	0.423	1.000	1.354	0.451	0.986	1.335	-0.178	0.713	1.443	-0.148	0.388	1.548	-0.102	0.240	1.608	-0.090	0.230	1.573	-0.026	0.717	1.451	0.056	0.417	1.479	0.064	0.283	1.534	0.069	0.274	1.513	-0.108	1.221	1.424	-0.324	0.612	1.335	-0.310	0.625	1.343	0.531	0.947	1.327	0.437	0.971	1.257
1384	48.948	-0.104	0.709	1.480	-0.106	1.007	1.453	-0.109	1.290	1.412	-0.090	1.434	1.385	-0.256	1.189	1.401	-0.307	0.952	1.406	-0.333	0.721	1.353	-0.342	0.662	1.335	0.047	1.160	1.413	0.249	1.048	1.377	0.423	1.000	1.354	0.451	0.986	1.335	-0.178	0.713	1.443	-0.148	0.388	1.548	-0.102	0.240	1.608	-0.090	0.230	1.573	-0.026	0.717	1.451	0.056	0.417	1.479	0.064	0.283	1.534	0.069	0.274	1.513	-0.108	1.221	1.424	-0.324	0.612	1.335	-0.310	0.625	1.343	0.531	0.947	1.327	0.437	0.971	1.257
1385	48.964	-0.105	0.708	1.480	-0.107	1.007	1.454	-0.110	1.290	1.412	-0.091	1.434	1.385	-0.256	1.189	1.401	-0.308	0.952	1.405	-0.337	0.728	1.349	-0.362	0.683	1.323	0.048	1.162	1.412	0.272	1.102	1.375	0.460	1.105	1.342	0.455	1.101	1.337	-0.178	0.713	1.443	-0.153	0.405	1.541	-0.109	0.248	1.603	-0.095	0.238	1.567	-0.027	0.717	1.451	0.056	0.417	1.479	0.064	0.282	1.534	0.068	0.274	1.513	-0.109	1.221	1.425	-0.339	0.621	1.322	-0.336	0.649	1.325	0.564	1.100	1.312	0.473	1.093	1.256
1386	48.981	-0.105	0.708	1.480	-0.107	1.007	1.454	-0.110	1.290	1.412	-0.091	1.434	1.385	-0.256	1.189	1.401	-0.308	0.952	1.405	-0.337	0.728	1.349	-0.362	0.683	1.323	0.048	1.162	1.412	0.272	1.102	1.375	0.460	1.105	1.342	0.455	1.101	1.337	-0.178	0.713	1.443	-0.153	0.405	1.541	-0.109	0.248	1.603	-0.095	0.238	1.567	-0.027	0.717	1.451	0.056	0.417	1.479	0.064	0.282	1.534	0.068	0.274	1.513	-0.109	1.221	1.425	-0.339	0.621	1.322	-0.336	0.649	1.325	0.564	1.100	1.312	0.473	1.093	1.256
